<?xml version="1.0" encoding="UTF-8"?>
<svg version="1.1" xmlns="http://www.w3.org/2000/svg" width="1445" height="173">
<path d="M0 0 C476.85 0 953.7 0 1445 0 C1445 57.09 1445 114.18 1445 173 C968.15 173 491.3 173 0 173 C0 115.91 0 58.82 0 0 Z " fill="#02042B" transform="translate(0,0)"/>
<path d="M0 0 C22.9232306 1.14616153 22.9232306 1.14616153 33.6015625 2.0859375 C35.38620155 2.23811737 35.38620155 2.23811737 37.20689392 2.39337158 C39.72171388 2.60784094 42.23641777 2.82367549 44.75100708 3.04083252 C51.39706691 3.61411624 58.04410471 4.17570518 64.69140625 4.734375 C65.35259146 4.79000736 66.01377666 4.84563972 66.69499779 4.90295792 C78.64459495 5.90643289 90.59933178 6.80108877 102.5625 7.625 C114.96846937 8.48145361 127.36180788 9.41502932 139.75 10.5 C140.4549057 10.56172394 141.1598114 10.62344788 141.88607788 10.68704224 C142.58778107 10.74850433 143.28948425 10.80996643 144.01245117 10.87329102 C154.79632643 11.81733527 165.58350105 12.70986404 176.375 13.5625 C177.57292175 13.65723099 177.57292175 13.65723099 178.79504395 13.75387573 C190.54320485 14.67973545 202.29502055 15.51685421 214.05371094 16.29882812 C222.16399107 16.84703792 230.25091177 17.54778499 238.34228516 18.32275391 C243.85237739 18.83903865 249.34653387 19.19831963 254.875 19.4375 C264.6568043 19.87065042 274.38708316 20.82925492 284.12646484 21.80834961 C295.22288583 22.90205226 306.33479126 23.68742835 317.45727539 24.46655273 C329.4636474 25.30960152 341.46396936 26.23315627 353.46442795 27.15601349 C355.54325242 27.31582507 357.62210427 27.47527728 359.70095825 27.63470459 C381.54703535 29.31163968 403.38213015 31.09805375 425.21456909 32.94442749 C441.84501577 34.34904756 458.47742344 35.65128066 475.12728882 36.80230713 C486.67802169 37.60143111 498.21576602 38.48981985 509.75 39.5 C510.4549057 39.56172394 511.1598114 39.62344788 511.88607788 39.68704224 C512.58778107 39.74850433 513.28948425 39.80996643 514.01245117 39.87329102 C524.79632643 40.81733527 535.58350105 41.70986404 546.375 42.5625 C547.1736145 42.62565399 547.972229 42.68880798 548.79504395 42.75387573 C560.54320485 43.67973545 572.29502055 44.51685421 584.05371094 45.29882812 C592.16399107 45.84703792 600.25091177 46.54778499 608.34228516 47.32275391 C613.85237739 47.83903865 619.34653387 48.19831963 624.875 48.4375 C634.6568043 48.87065042 644.38708316 49.82925492 654.12646484 50.80834961 C665.22288583 51.90205226 676.33479126 52.68742835 687.45727539 53.46655273 C699.4636474 54.30960152 711.46396936 55.23315627 723.46442795 56.15601349 C725.54325242 56.31582507 727.62210427 56.47527728 729.70095825 56.63470459 C751.54703535 58.31163968 773.38213015 60.09805375 795.21456909 61.94442749 C811.84501577 63.34904756 828.47742344 64.65128066 845.12728882 65.80230713 C856.67802169 66.60143111 868.21576602 67.48981985 879.75 68.5 C880.4549057 68.56172394 881.1598114 68.62344788 881.88607788 68.68704224 C882.58778107 68.74850433 883.28948425 68.80996643 884.01245117 68.87329102 C894.79632643 69.81733527 905.58350105 70.70986404 916.375 71.5625 C917.1736145 71.62565399 917.972229 71.68880798 918.79504395 71.75387573 C930.54320485 72.67973545 942.29502055 73.51685421 954.05371094 74.29882812 C962.16399107 74.84703792 970.25091177 75.54778499 978.34228516 76.32275391 C983.85237739 76.83903865 989.34653387 77.19831963 994.875 77.4375 C1004.6568043 77.87065042 1014.38708316 78.82925492 1024.12646484 79.80834961 C1035.22288583 80.90205226 1046.33479126 81.68742835 1057.45727539 82.46655273 C1069.4636474 83.30960152 1081.46396936 84.23315627 1093.46442795 85.15601349 C1095.54325242 85.31582507 1097.62210427 85.47527728 1099.70095825 85.63470459 C1121.55106659 87.31194913 1143.39017945 89.09880568 1165.22665405 90.94543457 C1181.57456053 92.32612101 1197.92358517 93.61339908 1214.29150391 94.73190308 C1224.41352988 95.42458839 1234.52477205 96.1951622 1244.6328125 97.0703125 C1245.70164169 97.16277756 1246.77047089 97.25524261 1247.87168884 97.35050964 C1253.06928743 97.80225326 1258.26608929 98.26171196 1263.4621582 98.73071289 C1267.9207655 99.13102304 1272.38102207 99.49009918 1276.84515381 99.82275391 C1278.63455003 99.96994005 1280.41930621 100.17229949 1282.20166016 100.38867188 C1291.22552233 101.13686885 1298.78679504 96.21919674 1306.5 92.125 C1307.9260405 91.38860204 1309.35312138 90.65421518 1310.78125 89.921875 C1316.60326043 86.92390736 1322.38981054 83.85980109 1328.16796875 80.77832031 C1344.68237561 71.99354589 1361.46272838 63.73447491 1378.20776367 55.40130615 C1383.26468156 52.88446877 1388.32051135 50.3654625 1393.375 47.84375 C1394.41989594 47.3226918 1394.41989594 47.3226918 1395.48590088 46.79110718 C1404.19363673 42.44590646 1412.88117905 38.06893674 1421.43115234 33.41833496 C1429.14735749 29.26425082 1437.02585091 25.75254075 1445 22 C1445 49.06 1445 76.12 1445 104 C968.15 104 491.3 104 0 104 C0 69.68 0 35.36 0 0 Z " fill="#FEFEFE" transform="translate(0,69)"/>
</svg>
