<?xml version="1.0" encoding="UTF-8"?>
<svg version="1.1" xmlns="http://www.w3.org/2000/svg" width="1444" height="199">
<path d="M0 0 C476.52 0 953.04 0 1444 0 C1444 65.67 1444 131.34 1444 199 C967.48 199 490.96 199 0 199 C0 133.33 0 67.66 0 0 Z " fill="#000000" transform="translate(0,0)"/>
<path d="M0 0 C38.79201681 2.15511204 38.79201681 2.15511204 51.62109375 3.49609375 C60.01874862 4.33307476 68.45384969 4.78904569 76.87646484 5.30273438 C78.7145874 5.4177832 78.7145874 5.4177832 80.58984375 5.53515625 C81.68159912 5.600979 82.77335449 5.66680176 83.89819336 5.73461914 C86.97542722 5.99789763 89.95610577 6.48579119 93 7 C94.85064697 7.169492 96.70394533 7.31178496 98.55859375 7.4296875 C100.19151367 7.53700195 100.19151367 7.53700195 101.85742188 7.64648438 C103.62956055 7.75959961 103.62956055 7.75959961 105.4375 7.875 C108.04046133 8.04817278 110.64333118 8.22233677 113.24609375 8.3984375 C113.93730316 8.44510559 114.62851257 8.49177368 115.34066772 8.53985596 C124.23070275 9.14492171 133.11554576 9.81847935 142 10.5 C143.2691777 10.59711777 143.2691777 10.59711777 144.56399536 10.69619751 C153.67761074 11.39610273 162.78172899 12.12997722 171.875 13.0625 C181.20955343 14.01916789 190.56559608 14.52928251 199.93188477 15.05688477 C211.29062927 15.70293538 222.59742938 16.6485669 233.91900635 17.76385498 C242.4201195 18.59985731 250.88858797 19.29135706 259.42211914 19.65869141 C264.9082228 19.90642337 270.34942719 20.38255092 275.8125 20.9375 C284.30338222 21.79852479 292.79505593 22.40433441 301.3125 22.9375 C311.33533316 23.57114904 321.31956906 24.37821537 331.3125 25.375 C349.34877155 27.16125117 367.42853181 28.34177556 385.51098633 29.55419922 C396.96279863 30.32763071 408.39173169 31.17449453 419.81365967 32.3104248 C427.51353617 33.07108856 435.21434903 33.59627304 442.9375 34.0625 C445.48845463 34.21721955 448.03924567 34.3746662 450.58984375 34.53515625 C451.68159912 34.600979 452.77335449 34.66680176 453.89819336 34.73461914 C456.97542722 34.99789763 459.95610577 35.48579119 463 36 C464.85064697 36.169492 466.70394533 36.31178496 468.55859375 36.4296875 C469.64720703 36.50123047 470.73582031 36.57277344 471.85742188 36.64648438 C473.03884766 36.72189453 474.22027344 36.79730469 475.4375 36.875 C478.04046133 37.04817278 480.64333118 37.22233677 483.24609375 37.3984375 C483.93730316 37.44510559 484.62851257 37.49177368 485.34066772 37.53985596 C494.23070275 38.14492171 503.11554576 38.81847935 512 39.5 C512.84611847 39.56474518 513.69223694 39.62949036 514.56399536 39.69619751 C523.67761074 40.39610273 532.78172899 41.12997722 541.875 42.0625 C551.20955343 43.01916789 560.56559608 43.52928251 569.93188477 44.05688477 C581.29062927 44.70293538 592.59742938 45.6485669 603.91900635 46.76385498 C612.4201195 47.59985731 620.88858797 48.29135706 629.42211914 48.65869141 C634.9082228 48.90642337 640.34942719 49.38255092 645.8125 49.9375 C654.30338222 50.79852479 662.79505593 51.40433441 671.3125 51.9375 C681.33533316 52.57114904 691.31956906 53.37821537 701.3125 54.375 C719.34877155 56.16125117 737.42853181 57.34177556 755.51098633 58.55419922 C766.96279863 59.32763071 778.39173169 60.17449453 789.81365967 61.3104248 C797.51353617 62.07108856 805.21434903 62.59627304 812.9375 63.0625 C815.48845463 63.21721955 818.03924567 63.3746662 820.58984375 63.53515625 C821.68159912 63.600979 822.77335449 63.66680176 823.89819336 63.73461914 C826.97542722 63.99789763 829.95610577 64.48579119 833 65 C834.85064697 65.169492 836.70394533 65.31178496 838.55859375 65.4296875 C839.64720703 65.50123047 840.73582031 65.57277344 841.85742188 65.64648438 C843.03884766 65.72189453 844.22027344 65.79730469 845.4375 65.875 C848.04046133 66.04817278 850.64333118 66.22233677 853.24609375 66.3984375 C853.93730316 66.44510559 854.62851257 66.49177368 855.34066772 66.53985596 C864.23070275 67.14492171 873.11554576 67.81847935 882 68.5 C882.84611847 68.56474518 883.69223694 68.62949036 884.56399536 68.69619751 C893.67761074 69.39610273 902.78172899 70.12997722 911.875 71.0625 C921.20955343 72.01916789 930.56559608 72.52928251 939.93188477 73.05688477 C951.29062927 73.70293538 962.59742938 74.6485669 973.91900635 75.76385498 C982.4201195 76.59985731 990.88858797 77.29135706 999.42211914 77.65869141 C1004.9082228 77.90642337 1010.34942719 78.38255092 1015.8125 78.9375 C1024.30338222 79.79852479 1032.79505593 80.40433441 1041.3125 80.9375 C1051.33533316 81.57114904 1061.31956906 82.37821537 1071.3125 83.375 C1089.34877155 85.16125117 1107.42853181 86.34177556 1125.51098633 87.55419922 C1136.96279863 88.32763071 1148.39173169 89.17449453 1159.81365967 90.3104248 C1167.51353617 91.07108856 1175.21434903 91.59627304 1182.9375 92.0625 C1185.48845463 92.21721955 1188.03924567 92.3746662 1190.58984375 92.53515625 C1191.68159912 92.600979 1192.77335449 92.66680176 1193.89819336 92.73461914 C1196.97542722 92.99789763 1199.95610577 93.48579119 1203 94 C1204.85064697 94.169492 1206.70394533 94.31178496 1208.55859375 94.4296875 C1210.19308472 94.5371228 1210.19308472 94.5371228 1211.8605957 94.64672852 C1213.04097412 94.72205811 1214.22135254 94.7973877 1215.4375 94.875 C1218.02353649 95.0468425 1220.60947939 95.21969066 1223.1953125 95.39453125 C1223.88383804 95.44099289 1224.57236359 95.48745453 1225.28175354 95.5353241 C1233.59456883 96.10116461 1241.90275965 96.72779103 1250.21047974 97.36358643 C1251.93411389 97.49535105 1253.65780733 97.62634263 1255.38156128 97.75653076 C1257.82354396 97.94113417 1260.26530959 98.12838542 1262.70703125 98.31640625 C1263.42684174 98.3705217 1264.14665222 98.42463715 1264.88827515 98.48039246 C1270.4900684 98.9170775 1276.04464614 99.57551378 1281.60742188 100.37451172 C1291.05503105 101.09539009 1298.42440226 96.41155612 1306.5 92.125 C1307.9260405 91.38860204 1309.35312138 90.65421518 1310.78125 89.921875 C1316.60326043 86.92390736 1322.38981054 83.85980109 1328.16796875 80.77832031 C1344.68237561 71.99354589 1361.46272838 63.73447491 1378.20776367 55.40130615 C1383.26468138 52.88446886 1388.32066441 50.36576912 1393.375 47.84375 C1394.06862703 47.49766567 1394.76225407 47.15158134 1395.4769001 46.79500961 C1405.75495262 41.66276444 1415.96407808 36.41718606 1426.09825134 31.00540161 C1441.24071938 23 1441.24071938 23 1444 23 C1444 58.31 1444 93.62 1444 130 C967.48 130 490.96 130 0 130 C0 87.1 0 44.2 0 0 Z " fill="#FEFEFE" transform="translate(0,69)"/>
</svg>
